<?xml version="1.0" standalone="no"?>
<!DOCTYPE svg PUBLIC "-//W3C//DTD SVG 20010904//EN"
 "http://www.w3.org/TR/2001/REC-SVG-20010904/DTD/svg10.dtd">
<svg version="1.0" xmlns="http://www.w3.org/2000/svg"
 width="640.000000pt" height="640.000000pt" viewBox="0 0 640.000000 640.000000"
 preserveAspectRatio="xMidYMid meet">
<metadata>
Created by potrace 1.14, written by Peter Selinger 2001-2017
</metadata>
<g transform="translate(0.000000,640.000000) scale(0.100000,-0.100000)"
fill="#000000" stroke="none">
<path d="M0 3200 l0 -1690 3200 0 3200 0 0 1690 0 1690 -3200 0 -3200 0 0
-1690z m2746 1011 c59 -27 87 -72 92 -146 5 -77 -20 -132 -75 -166 -32 -20
-51 -24 -123 -24 -98 0 -129 12 -173 68 -67 82 -40 215 53 264 56 30 165 32
226 4z m-714 -31 c56 -16 91 -67 91 -133 1 -64 -22 -110 -66 -134 -28 -16 -68
-18 -334 -21 l-303 -3 -1 -757 c0 -416 -2 -775 -4 -797 -6 -60 -32 -107 -72
-135 -29 -20 -48 -24 -102 -24 -78 0 -121 21 -154 74 l-22 35 -3 802 -3 802
-302 3 c-266 3 -306 5 -334 21 -49 26 -66 60 -66 128 0 69 19 104 74 131 31
17 90 18 799 18 497 0 778 -4 802 -10z m1433 -610 c39 -24 65 -81 65 -144 0
-23 3 -45 6 -49 3 -3 25 18 48 46 56 68 126 121 201 149 50 19 79 23 180 23
103 0 129 -4 183 -24 80 -30 157 -100 195 -175 16 -31 32 -56 36 -56 4 0 13
11 19 25 18 39 98 120 153 156 78 49 185 79 287 79 200 0 334 -73 401 -219 57
-125 61 -160 61 -651 0 -415 -1 -448 -19 -480 -28 -53 -72 -74 -153 -74 -73 0
-102 14 -142 68 -20 26 -21 43 -27 464 -4 296 -9 449 -17 473 -20 59 -54 103
-102 127 -39 20 -56 23 -131 20 -67 -3 -93 -9 -125 -28 -71 -42 -114 -101
-145 -195 -9 -29 -14 -152 -18 -437 -6 -380 -7 -398 -27 -424 -40 -55 -69 -68
-143 -68 -57 0 -75 4 -105 24 -65 45 -66 55 -66 486 0 320 -3 397 -16 457 -22
94 -51 139 -109 167 -40 19 -58 22 -128 18 -121 -6 -188 -50 -242 -158 -34
-66 -37 -106 -44 -502 -6 -380 -7 -398 -27 -424 -40 -54 -67 -67 -141 -67 -85
-1 -129 21 -158 78 -19 39 -20 60 -20 615 0 316 3 591 8 610 22 104 161 152
262 90z m-740 0 c22 -11 49 -34 60 -52 19 -32 20 -56 23 -623 l3 -591 -23 -43
c-31 -58 -75 -81 -154 -81 -74 0 -119 26 -149 85 -19 38 -20 63 -23 567 -3
547 2 651 36 697 43 60 148 79 227 41z m3223 -1001 c109 -53 138 -221 54 -321
-91 -108 -285 -82 -343 47 -22 47 -24 133 -5 178 17 42 73 95 111 106 56 17
136 12 183 -10z"/>
</g>
</svg>
